Coordinates
version=1
nRows=10
nColumns=22
inDegrees=yes

Units are S.I. units (second, meters, Newtons, ...)
If the header above contains a line with 'inDegrees', this indicates whether rotational values are in degrees (yes) or radians (no).

endheader
time	pelvis_tilt	pelvis_list	pelvis_rotation	pelvis_tx	pelvis_ty	pelvis_tz	hip_flexion_r	hip_adduction_r	hip_rotation_r	knee_angle_r	ankle_angle_r	subtalar_angle_r	hip_flexion_l	hip_adduction_l	hip_rotation_l	knee_angle_l	ankle_angle_l	subtalar_angle_l	lumbar_extension	lumbar_bending	lumbar_rotation
      1.14000000	     -2.75537836	      5.41029312	    177.77642846	     -1.13052236	      0.99677819	     -0.02943902	     21.40340822	      7.00539888	     -3.39952736	    -19.65401530	     -4.53826265	     -0.95814060	     -0.50874717	     -3.97699016	     -0.21715991	    -32.41225128	     22.17838201	      0.85661119	    -14.87313116	      4.01890211	      2.55817076
      1.15000000	     -2.87974737	      5.42154068	    177.90469702	     -1.12328743	      0.99670598	     -0.02727427	     21.28583863	      6.87647622	     -3.34538343	    -18.91115577	     -4.59512622	     -0.36258752	     -0.29024851	     -3.87578029	     -0.42256237	    -32.18265949	     22.52743411	      0.10692434	    -14.96774104	      4.00137117	      2.43338210
      1.16000000	     -2.99763298	      5.44926469	    178.02714433	     -1.11606202	      0.99668939	     -0.02508635	     21.14305068	      6.76572575	     -3.26957518	    -18.14040422	     -4.42432141	      0.29573930	      0.00035703	     -3.79770954	     -0.56213362	    -32.07041246	     22.78913773	     -0.51242395	    -15.04166422	      4.01313350	      2.32969934
      1.17000000	     -1.98061232	      4.86544738	    177.56749969	     -1.10670953	      0.99421641	     -0.02329073	     22.42386612	      6.08463745	     -4.01679552	    -17.42957177	     -4.17026466	      0.31464501	      1.86159111	     -3.05115182	     -0.94886677	    -32.45497621	     22.96255098	     -1.07195466	    -14.02929070	      3.32678266	      2.57005343
      1.18000000	     -2.25249291	      4.97606683	    177.74436574	     -1.09995044	      0.99459092	     -0.02115736	     22.04884473	      6.05839677	     -3.86899790	    -16.67870273	     -3.47754581	      1.00892650	      2.01435762	     -3.08541167	     -0.93702321	    -32.43239050	     23.10651240	     -1.41891862	    -14.20966767	      3.43271350	      2.47111411
      1.19000000	     -2.44347763	      5.04589912	    177.83901805	     -1.09304888	      0.99487217	     -0.01909642	     21.79499142	      6.01442736	     -3.65675330	    -16.02141453	     -2.64854943	      1.64444324	      2.30866072	     -3.08252916	     -0.93630371	    -32.51110803	     23.16175759	     -1.63259246	    -14.31252830	      3.49343350	      2.47973873
      1.20000000	     -2.58434665	      5.08129858	    177.86656295	     -1.08611039	      0.99513910	     -0.01710731	     21.63113242	      5.95016429	     -3.45331377	    -15.48480585	     -1.74834721	      2.11333241	      2.67229651	     -3.04990825	     -0.96765043	    -32.62371392	     23.16481362	     -1.74390567	    -14.36121321	      3.51698243	      2.54738707
      1.21000000	     -2.69457413	      5.08126834	    177.82489629	     -1.07916823	      0.99544399	     -0.01522627	     21.54487129	      5.87096007	     -3.23036030	    -15.10701374	     -0.85342849	      2.41633371	      3.06197483	     -2.98293817	     -1.04077735	    -32.73417881	     23.11251385	     -1.79845831	    -14.37644424	      3.49596502	      2.68863726
      1.22000000	     -2.81622270	      5.07238396	    177.73092949	     -1.07224857	      0.99585148	     -0.01346798	     21.50649172	      5.79782877	     -3.04832094	    -14.94119296	     -0.01021648	      2.51505460	      3.42857089	     -2.91812984	     -1.19316148	    -32.83933576	     23.03001584	     -1.82658892	    -14.40798289	      3.45642099	      2.88316187
      1.23000000	     -2.90834771	      5.01837355	    177.55963348	     -1.06533395	      0.99632727	     -0.01186743	     21.57658483	      5.71129628	     -2.77387335	    -15.04709471	      0.71351008	      2.62180831	      3.79079192	     -2.79836562	     -1.38230914	    -32.89167768	     22.87392766	     -1.86327588	    -14.40786715	      3.35571351	      3.14270974
